<svg width="43" height="70" viewBox="0 0 43 70" fill="none" xmlns="http://www.w3.org/2000/svg">
<path d="M0.289923 12.1139C7.3183 8.048 14.3846 4.0524 21.4239 0C28.6122 4.01183 35.7762 8.07235 42.9076 12.1951C42.932 20.3865 43.0405 28.5751 42.9862 36.7638C36.774 40.451 30.4859 44.0165 24.2683 47.6955C24.271 54.3747 24.309 61.0539 24.2574 67.7303C23.9917 69.7457 21.4212 70.6357 19.8186 69.505C13.3407 65.6473 6.62143 62.2469 0.129941 58.419C0.108248 43.1535 0.100114 27.9042 0.0106319 12.6631C-0.0354647 12.4277 0.0702863 12.2059 0.289923 12.1139ZM21.4645 6.30584C17.0664 8.78111 12.7252 11.3619 8.34327 13.8723C12.7252 16.4098 17.1233 18.9365 21.5459 21.4144C25.9847 18.9392 30.3937 16.4125 34.7865 13.8615C30.3558 11.3321 25.9468 8.73242 21.4645 6.30584ZM24.252 26.2459C24.2846 31.2343 24.2276 36.2255 24.2954 41.2139C28.7668 38.8468 33.1026 36.2011 37.5089 33.7042C37.5441 28.6671 37.5062 23.63 37.5034 18.5929C33.0972 21.1629 28.661 23.6787 24.252 26.2459ZM8.44089 35.3219C11.8466 37.3157 15.2713 39.2878 18.7231 41.203C18.7638 37.2913 18.7394 33.3796 18.7259 29.4678C15.2225 31.2749 11.8439 33.3309 8.44089 35.3219ZM5.52867 54.1448C5.56934 54.5695 5.35784 55.1971 5.87304 55.4081C10.1763 57.8076 14.4877 60.1963 18.7584 62.6554C18.9672 57.6805 18.7774 52.6948 18.7964 47.7334C14.5555 44.9822 9.9919 43.1398 5.63442 40.5212C5.45003 45.2066 5.58019 49.4431 5.52867 54.1448Z" fill="#FF3708"/>
</svg>
